<svg width="378" height="378" xmlns="http://www.w3.org/2000/svg" xmlns:xlink="http://www.w3.org/1999/xlink" overflow="hidden"><defs><clipPath id="clip0"><rect x="39" y="8" width="378" height="378"/></clipPath></defs><g clip-path="url(#clip0)" transform="translate(-39 -8)"><path d="M328.406 94.625 313.05 109.981C361.875 158.806 361.875 238.344 313.05 287.169L328.406 302.525C385.894 245.431 385.894 152.112 328.406 94.625Z" fill="#F78DA7"/><path d="M297.3 125.337 281.944 140.694C313.838 172.587 313.838 224.169 281.944 256.456L297.3 271.812C337.856 231.256 337.856 165.894 297.3 125.337Z" fill="#F78DA7"/><path d="M266.981 156.837 251.625 172.194C266.587 187.156 266.587 211.175 251.625 226.138L266.981 241.494C290.606 217.869 290.606 180.069 266.981 156.837Z" fill="#F78DA7"/><path d="M52.7812 144.237 52.7812 249.763 129.169 249.763 228 330.875 228 63.125 129.169 144.237Z" fill="#F78DA7"/></g></svg>