<svg width="378" height="378" xmlns="http://www.w3.org/2000/svg" xmlns:xlink="http://www.w3.org/1999/xlink" overflow="hidden"><defs><clipPath id="clip0"><rect x="137" y="386" width="378" height="378"/></clipPath></defs><g clip-path="url(#clip0)" transform="translate(-137 -386)"><path d="M426.406 472.625 411.05 487.981C459.875 536.806 459.875 616.344 411.05 665.169L426.406 680.525C483.894 623.431 483.894 530.112 426.406 472.625Z" fill="#894D71"/><path d="M395.3 503.337 379.944 518.694C411.838 550.588 411.838 602.169 379.944 634.456L395.3 649.812C435.856 609.256 435.856 543.894 395.3 503.337Z" fill="#894D71"/><path d="M364.981 534.838 349.625 550.194C364.587 565.156 364.587 589.175 349.625 604.138L364.981 619.494C388.606 595.869 388.606 558.069 364.981 534.838Z" fill="#894D71"/><path d="M150.781 522.237 150.781 627.763 227.169 627.763 326 708.875 326 441.125 227.169 522.237Z" fill="#894D71"/></g></svg>