<svg width="378" height="378" xmlns="http://www.w3.org/2000/svg" xmlns:xlink="http://www.w3.org/1999/xlink" overflow="hidden"><defs><clipPath id="clip0"><rect x="592" y="312" width="378" height="378"/></clipPath></defs><g clip-path="url(#clip0)" transform="translate(-592 -312)"><path d="M867.625 390.75 836.125 390.75 836.125 367.125 867.625 367.125 867.625 390.75ZM867.625 451.781 836.125 451.781 836.125 428.156 867.625 428.156 867.625 451.781ZM867.625 512.812 836.125 512.812 836.125 489.188 867.625 489.188 867.625 512.812ZM867.625 573.844 836.125 573.844 836.125 550.219 867.625 550.219 867.625 573.844ZM867.625 634.875 836.125 634.875 836.125 611.25 867.625 611.25 867.625 634.875ZM721.938 390.75 690.438 390.75 690.438 367.125 721.938 367.125 721.938 390.75ZM721.938 451.781 690.438 451.781 690.438 428.156 721.938 428.156 721.938 451.781ZM721.938 512.812 690.438 512.812 690.438 489.188 721.938 489.188 721.938 512.812ZM721.938 573.844 690.438 573.844 690.438 550.219 721.938 550.219 721.938 573.844ZM721.938 634.875 690.438 634.875 690.438 611.25 721.938 611.25 721.938 634.875ZM670.75 343.5 670.75 658.5 891.25 658.5 891.25 343.5 670.75 343.5Z" fill="#894D71"/></g></svg>