<svg width="378" height="378" xmlns="http://www.w3.org/2000/svg" xmlns:xlink="http://www.w3.org/1999/xlink" overflow="hidden"><defs><clipPath id="clip0"><rect x="451" y="-81" width="378" height="378"/></clipPath></defs><g clip-path="url(#clip0)" transform="translate(-451 81)"><path d="M726.625-2.25 695.125-2.25 695.125-25.875 726.625-25.875 726.625-2.25ZM726.625 58.7812 695.125 58.7812 695.125 35.1562 726.625 35.1562 726.625 58.7812ZM726.625 119.812 695.125 119.812 695.125 96.1875 726.625 96.1875 726.625 119.812ZM726.625 180.844 695.125 180.844 695.125 157.219 726.625 157.219 726.625 180.844ZM726.625 241.875 695.125 241.875 695.125 218.25 726.625 218.25 726.625 241.875ZM580.938-2.25 549.438-2.25 549.438-25.875 580.938-25.875 580.938-2.25ZM580.938 58.7812 549.438 58.7812 549.438 35.1562 580.938 35.1562 580.938 58.7812ZM580.938 119.812 549.438 119.812 549.438 96.1875 580.938 96.1875 580.938 119.812ZM580.938 180.844 549.438 180.844 549.438 157.219 580.938 157.219 580.938 180.844ZM580.938 241.875 549.438 241.875 549.438 218.25 580.938 218.25 580.938 241.875ZM529.75-49.5 529.75 265.5 750.25 265.5 750.25-49.5 529.75-49.5Z" fill="#F78DA7"/></g></svg>